<svg width="91" height="24" viewBox="0 0 91 24" fill="none" xmlns="http://www.w3.org/2000/svg">
<g id="logotype_howmuch">
<path id="Rectangle 86" d="M83.9821 11.3971C82.8874 9.50112 83.537 7.07672 85.433 5.98206L88.866 4.00001C89.9607 5.89601 89.3111 8.32042 87.4151 9.41507L83.9821 11.3971Z" fill="#51B667"/>
<g id="Vector">
<path d="M19.3621 12.4215C18.7962 12.4215 18.5267 12.2248 18.5267 11.4941V1.09602C18.5267 0.533957 18.7154 0.309133 19.2543 0.309133H27.8501C28.389 0.309133 28.6046 0.533958 28.6046 1.12412V11.4941C28.6046 12.2248 28.3082 12.4215 27.7693 12.4215H19.3621ZM19.3082 10.9602C19.3082 11.466 19.4698 11.6066 20.0088 11.6066H27.1225C27.6615 11.6066 27.8231 11.466 27.8231 10.9602V1.74239C27.8231 1.26464 27.7154 1.15222 27.2573 1.15222H19.874C19.416 1.15222 19.3082 1.26464 19.3082 1.74239V10.9602ZM21.2483 9.04918V3.99063C21.2483 3.45667 21.5178 3.11944 22.0297 3.11944H25.1016C25.5866 3.11944 25.883 3.45667 25.883 3.99063V9.04918C25.883 9.41452 25.6136 9.63934 25.2902 9.63934H21.8411C21.4908 9.63934 21.2483 9.41452 21.2483 9.04918ZM21.6255 14.6979C21.6255 14.3888 21.8142 14.2201 22.0567 14.2201H24.8321C25.2363 14.2201 25.371 14.3888 25.371 14.7822L25.4249 19.2506C25.4249 19.5597 25.5597 19.7002 25.8561 19.7002L33.3471 19.5597C33.5627 19.5597 33.7782 19.6721 33.8052 19.9532L33.9399 22.6792C33.9669 23.0445 33.8052 23.3255 33.2932 23.3255L22.2722 23.4098C21.9758 23.4098 21.7872 23.2131 21.7872 22.9321L21.6255 14.6979ZM22.0297 8.3185C22.0297 8.65574 22.1645 8.82436 22.5956 8.82436H24.5357C24.9669 8.82436 25.1016 8.65574 25.1016 8.3185V4.41218C25.1016 4.07494 24.9399 3.93443 24.6435 3.93443H22.4878C22.1914 3.93443 22.0297 4.07494 22.0297 4.41218V8.3185ZM22.4878 15.26L22.6225 22.2576C22.6225 22.4824 22.6764 22.5667 22.8651 22.5667L32.7812 22.4824C33.0507 22.4824 33.1854 22.3981 33.1585 22.1171L33.0776 20.8244C33.0507 20.5714 32.9699 20.4309 32.7543 20.4309L25.371 20.5152C24.886 20.5152 24.6435 20.2904 24.6435 19.8407L24.6166 15.3162C24.6166 15.1475 24.5357 15.0351 24.3471 15.0351H22.7034C22.5417 15.0351 22.4878 15.0913 22.4878 15.26ZM29.7633 0.590163C29.7633 0.168618 29.9519 0 30.3561 0L32.4848 0.0281027C32.889 0.0281027 33.0507 0.19672 33.0507 0.618267L33.0776 3.6815C33.0776 3.90632 33.1854 3.99063 33.401 3.99063L34.398 3.96253C34.6944 3.96253 34.8291 4.10304 34.8561 4.41218L35.0717 7.13817C35.0986 7.53162 34.9908 7.70023 34.6405 7.72834L33.6435 7.81264C33.3471 7.84075 33.2663 7.98126 33.2932 8.2904L33.5627 12.5902C33.5896 13.1522 33.3202 13.3208 32.7004 13.3208L30.5717 13.2927C30.0866 13.2927 29.898 13.1241 29.898 12.7869L29.7633 0.590163ZM30.5717 1.20843L30.6794 11.7752C30.6794 12.281 30.7603 12.4496 31.0836 12.4496H32.3501C32.6465 12.4496 32.7543 12.281 32.7273 11.8595L32.4309 7.64403C32.404 7.22248 32.5118 7.05386 32.8621 7.02576L33.913 6.94145C34.1824 6.91335 34.2633 6.80094 34.2363 6.4918L34.1285 5.11475C34.1016 4.88993 34.0208 4.80562 33.8052 4.80562L32.7812 4.83372C32.4309 4.83372 32.2962 4.69321 32.2962 4.35597L32.2423 1.34895C32.2423 1.01171 32.1345 0.871195 31.919 0.871195H30.895C30.6525 0.871195 30.5717 0.983606 30.5717 1.20843Z" fill="#F7662D"/>
<path fill-rule="evenodd" clip-rule="evenodd" d="M19.3082 10.9602C19.3082 11.466 19.4698 11.6066 20.0088 11.6066H27.1225C27.6615 11.6066 27.8231 11.466 27.8231 10.9602V1.74239C27.8231 1.26464 27.7154 1.15222 27.2573 1.15222H19.874C19.416 1.15222 19.3082 1.26464 19.3082 1.74239V10.9602ZM21.2483 3.99063V9.04918C21.2483 9.41452 21.4908 9.63934 21.8411 9.63934H25.2902C25.6136 9.63934 25.883 9.41452 25.883 9.04918V3.99063C25.883 3.45667 25.5866 3.11944 25.1016 3.11944H22.0297C21.5178 3.11944 21.2483 3.45667 21.2483 3.99063Z" fill="#F7662D"/>
<path d="M30.5717 1.20843L30.6794 11.7752C30.6794 12.281 30.7603 12.4496 31.0836 12.4496H32.3501C32.6465 12.4496 32.7543 12.281 32.7273 11.8595L32.4309 7.64403C32.404 7.22248 32.5118 7.05386 32.8621 7.02576L33.913 6.94145C34.1824 6.91335 34.2633 6.80094 34.2363 6.4918L34.1285 5.11475C34.1016 4.88993 34.0208 4.80562 33.8052 4.80562L32.7812 4.83372C32.4309 4.83372 32.2962 4.69321 32.2962 4.35597L32.2423 1.34895C32.2423 1.01171 32.1345 0.871195 31.919 0.871195H30.895C30.6525 0.871195 30.5717 0.983606 30.5717 1.20843Z" fill="#F7662D"/>
<path d="M22.4878 15.26L22.6225 22.2576C22.6225 22.4824 22.6764 22.5667 22.8651 22.5667L32.7812 22.4824C33.0507 22.4824 33.1854 22.3981 33.1585 22.1171L33.0776 20.8244C33.0507 20.5714 32.9699 20.4309 32.7543 20.4309L25.371 20.5152C24.886 20.5152 24.6435 20.2904 24.6435 19.8407L24.6166 15.3162C24.6166 15.1475 24.5357 15.0351 24.3471 15.0351H22.7034C22.5417 15.0351 22.4878 15.0913 22.4878 15.26Z" fill="#F7662D"/>
</g>
<g id="Vector_2">
<path d="M59.5682 17.3115C58.5712 17.3115 57.6011 16.6089 57.6011 15.6534V14.5293C57.6011 10.904 62.2628 8.57145 62.2628 5.48011C62.2628 4.38409 61.5353 4.24358 60.5113 4.24358C59.1101 4.24358 58.194 4.94615 55.8766 6.3232C55.6341 6.49182 55.2838 6.37941 55.1491 6.12648L53.9365 3.93444C53.8017 3.68152 53.8556 3.42859 54.1251 3.23187C56.0652 1.85482 57.9784 0.618286 61.1311 0.618286C64.7688 0.618286 66.2239 3.17566 66.2239 5.50821C66.2239 9.38643 61.6431 11.5785 61.5622 14.3888L61.5353 15.4286C61.5083 16.4965 60.6191 17.3115 59.5682 17.3115ZM54.9604 4.15927L55.4724 5.00236C55.6341 5.25529 55.8766 5.3677 56.2269 5.17098C58.0323 4.21548 59.0023 3.42859 60.5113 3.42859C61.9125 3.42859 63.0443 3.82203 63.0712 5.3958C63.1251 9.0773 58.3826 11.2693 58.3826 14.5012V15.6253C58.3826 16.1874 58.9485 16.4965 59.5682 16.4965C60.2149 16.4965 60.7808 16.1312 60.7808 15.4848V14.445C60.7808 11.2412 65.4425 8.96489 65.4425 5.50821C65.4425 3.62531 64.2568 1.43327 61.1311 1.43327C58.4634 1.43327 57.0353 2.22016 55.2568 3.42859C54.9065 3.65341 54.7987 3.93444 54.9604 4.15927ZM57.655 21.7237V18.5199C57.655 18.267 57.8437 18.1546 58.1401 18.1546L61.158 18.1265C61.4544 18.1265 61.5622 18.267 61.5622 18.548V21.7237C61.5622 22.0328 61.4275 22.1733 61.0503 22.1733L58.1401 22.2014C57.8167 22.2014 57.655 22.0328 57.655 21.7237ZM58.4365 20.9649C58.4365 21.274 58.5443 21.3864 58.7868 21.3864H60.4305C60.7 21.3864 60.8077 21.274 60.8077 21.0211L60.7538 19.3911C60.7538 19.082 60.6461 18.9696 60.3497 18.9696H58.8676C58.5443 18.9696 58.4365 19.1101 58.4365 19.4192V20.9649Z" fill="#F7662D"/>
<path d="M54.9604 4.15927L55.4724 5.00236C55.6341 5.25529 55.8766 5.3677 56.2269 5.17098C58.0323 4.21548 59.0023 3.42859 60.5113 3.42859C61.9125 3.42859 63.0443 3.82203 63.0712 5.3958C63.1251 9.0773 58.3826 11.2693 58.3826 14.5012V15.6253C58.3826 16.1874 58.9485 16.4965 59.5682 16.4965C60.2149 16.4965 60.7808 16.1312 60.7808 15.4848V14.445C60.7808 11.2412 65.4425 8.96489 65.4425 5.50821C65.4425 3.62531 64.2568 1.43327 61.1311 1.43327C58.4634 1.43327 57.0353 2.22016 55.2568 3.42859C54.9065 3.65341 54.7987 3.93444 54.9604 4.15927Z" fill="#F7662D"/>
<path d="M58.4365 20.9649C58.4365 21.274 58.5443 21.3864 58.7868 21.3864H60.4305C60.7 21.3864 60.8077 21.274 60.8077 21.0211L60.7538 19.3911C60.7538 19.082 60.6461 18.9696 60.3497 18.9696H58.8676C58.5443 18.9696 58.4365 19.1101 58.4365 19.4192V20.9649Z" fill="#F7662D"/>
</g>
<g id="Vector_3">
<path d="M47.5086 13.1522C47.1044 13.1522 46.9427 12.9836 46.9427 12.5901L46.8349 5.87352C46.8349 5.53628 46.7002 5.42387 46.4307 5.42387L38.7511 5.53629C38.5355 5.53629 38.3199 5.45198 38.3199 5.17095L38.1852 2.0234C38.1583 1.65806 38.3738 1.37703 38.8588 1.37703L50.1223 1.29272C50.3918 1.29272 50.5804 1.48945 50.5804 1.77048L50.8229 12.8712C50.8229 13.1241 50.6343 13.2365 50.3918 13.2365L47.5086 13.1522ZM36.8109 20.4309L36.8379 17.7049C36.8379 17.3115 36.9996 17.199 37.3768 17.199H39.0744C39.3439 17.199 39.4517 17.0866 39.4517 16.8056L39.4247 11.6346C39.4247 11.3536 39.5594 11.1569 39.8828 11.1569L42.0654 11.1288C42.4427 11.1288 42.6313 11.185 42.6313 11.5784L42.7121 16.9461C42.7121 17.1428 42.766 17.1709 42.9277 17.1709H43.4397C43.5744 17.1709 43.6283 17.0585 43.6283 16.8618L43.6014 11.8033C43.6014 11.5222 43.7092 11.3255 44.0056 11.3255H46.2151C46.5924 11.3255 46.781 11.3817 46.781 11.7752L46.8618 16.7494C46.8618 17.0585 46.9696 17.1709 47.3199 17.1709L51.4427 17.2272C51.8738 17.2272 52.0355 17.3958 52.0355 17.9016L52.0086 20.2904C52.0086 20.7681 51.8469 20.9649 51.4696 20.9649L37.4577 21.0211C37.0265 21.0211 36.8109 20.8243 36.8109 20.4309ZM37.5924 19.8969C37.5924 20.1218 37.7002 20.2061 37.9966 20.2061L50.6882 20.1499C51.0655 20.1499 51.2271 20.0375 51.2271 19.7002L51.2541 18.4918C51.2541 18.1546 51.1463 18.0702 50.8229 18.0702H46.5924C46.269 18.0702 46.1074 17.9859 46.1074 17.6487L46.0535 12.4215C46.0535 12.2248 45.9187 12.1967 45.7032 12.1967H44.5984C44.4367 12.1967 44.3828 12.3091 44.3828 12.4777L44.4098 17.5644C44.4098 17.8735 44.3289 17.9859 44.0864 17.9859H42.3618C42.0924 17.9859 41.9307 17.9016 41.9307 17.6206L41.8768 12.1405C41.8768 11.9719 41.796 11.9157 41.6074 11.9157L40.5026 11.8876C40.3409 11.8876 40.2331 12 40.2331 12.1967L40.26 17.4801C40.26 17.7892 40.0714 17.9859 39.775 17.9859L37.9427 18.014C37.7002 18.014 37.5924 18.1264 37.5924 18.3794V19.8969ZM38.9397 2.55736L39.0205 4.29975C39.0205 4.52457 39.1283 4.66509 39.3439 4.66509L46.8888 4.60888C47.4008 4.60888 47.6972 4.91802 47.6972 5.48008L47.7241 12.1405C47.7241 12.3091 47.7511 12.3934 47.9397 12.3934L49.7451 12.4215C49.9337 12.4215 49.9876 12.3934 49.9876 12.1967L49.772 2.44495C49.772 2.22012 49.6912 2.13582 49.5026 2.13582L39.3439 2.22012C39.1283 2.22012 38.9397 2.33254 38.9397 2.55736Z" fill="#F7662D"/>
<path d="M38.9397 2.55736L39.0205 4.29975C39.0205 4.52457 39.1283 4.66509 39.3439 4.66509L46.8888 4.60888C47.4008 4.60888 47.6972 4.91802 47.6972 5.48008L47.7241 12.1405C47.7241 12.3091 47.7511 12.3934 47.9397 12.3934L49.7451 12.4215C49.9337 12.4215 49.9876 12.3934 49.9876 12.1967L49.772 2.44495C49.772 2.22012 49.6912 2.13582 49.5026 2.13582L39.3439 2.22012C39.1283 2.22012 38.9397 2.33254 38.9397 2.55736Z" fill="#F7662D"/>
<path d="M37.5924 19.8969C37.5924 20.1218 37.7002 20.2061 37.9966 20.2061L50.6882 20.1499C51.0655 20.1499 51.2271 20.0375 51.2271 19.7002L51.2541 18.4918C51.2541 18.1546 51.1463 18.0702 50.8229 18.0702H46.5924C46.269 18.0702 46.1074 17.9859 46.1074 17.6487L46.0535 12.4215C46.0535 12.2248 45.9187 12.1967 45.7032 12.1967H44.5984C44.4367 12.1967 44.3828 12.3091 44.3828 12.4777L44.4098 17.5644C44.4098 17.8735 44.3289 17.9859 44.0864 17.9859H42.3618C42.0924 17.9859 41.9307 17.9016 41.9307 17.6206L41.8768 12.1405C41.8768 11.9719 41.796 11.9157 41.6074 11.9157L40.5026 11.8876C40.3409 11.8876 40.2331 12 40.2331 12.1967L40.26 17.4801C40.26 17.7892 40.0714 17.9859 39.775 17.9859L37.9427 18.014C37.7002 18.014 37.5924 18.1264 37.5924 18.3794V19.8969Z" fill="#F7662D"/>
</g>
<g id="Vector_4">
<path d="M6.00899 23.7752C5.6048 23.7752 5.22755 23.5785 5.2006 23.1569L4.8503 16.8056C4.82336 16.3841 5.03893 16.1311 5.49701 16.1311L11.3443 16.0468C11.5599 16.0468 11.6946 15.9906 11.7216 15.7658L11.8024 15.1756C11.8294 14.9508 11.7485 14.8665 11.5599 14.8665L6.14372 14.8946C5.82036 14.8946 5.57785 14.726 5.57785 14.445L5.52396 12.1405C5.52396 11.8595 5.73953 11.6628 6.14372 11.6628L14.2276 11.6909C14.6048 11.6909 14.7665 11.8314 14.7665 12.2248L14.9012 18.6885C14.9012 19.1382 14.7665 19.2787 14.2815 19.2787L8.16468 19.1663C7.86827 19.1663 7.76049 19.2506 7.76049 19.5035V20.0937C7.76049 20.4309 7.89522 20.5433 8.19162 20.5433H83.9665C84.209 20.5433 84.3707 20.6557 84.3707 20.9087V23.5222C84.3707 23.8033 84.2359 24 83.8856 24L6.00899 23.7752ZM0 5.14286C0 1.96721 1.99401 0 5.2006 0C8.3533 0 10.3473 1.96721 10.3473 5.14286C10.3473 7.98126 8.46109 9.75176 5.49701 9.75176C2.1018 9.75176 0 7.98126 0 5.14286ZM0.781438 5.14286C0.781438 7.47541 2.61377 8.93677 5.49701 8.93677C8.003 8.93677 9.53893 7.47541 9.53893 5.14286C9.53893 2.47307 7.86827 0.814988 5.2006 0.814988C2.47904 0.786885 0.781438 2.44497 0.781438 5.14286ZM2.69461 4.97424C2.69461 3.42857 3.58384 2.47307 4.98503 2.47307C6.6018 2.47307 7.62576 3.40047 7.62576 4.88993C7.62576 6.4637 6.62875 7.3911 5.09282 7.25059C3.63773 7.13817 2.69461 6.26698 2.69461 4.97424ZM3.47605 4.97424C3.47605 5.76112 4.12276 6.35129 5.14671 6.4356C6.17066 6.51991 6.81737 5.92974 6.81737 4.88993C6.81737 3.90632 6.11677 3.28806 4.98503 3.28806C4.06887 3.28806 3.47605 3.93442 3.47605 4.97424ZM5.63174 17.5082L5.92815 22.4262C5.9551 22.7073 6.14372 22.904 6.46707 22.904L83.1042 23.1288C83.4276 23.1288 83.5623 22.9602 83.5623 22.6229V21.7237C83.5623 21.5269 83.4545 21.3864 83.2659 21.3864L7.49102 21.3583C7.05989 21.3583 6.92516 21.2178 6.92516 20.7963L6.97905 18.829C6.97905 18.4356 7.14073 18.267 7.54492 18.267L13.5539 18.4075C13.985 18.4075 14.0928 18.2389 14.0928 17.7049L13.985 13.0398C13.985 12.7026 13.8773 12.534 13.5539 12.534L6.6018 12.5059C6.44013 12.5059 6.35929 12.5902 6.35929 12.7307V13.7986C6.35929 13.9672 6.49402 14.0515 6.68264 14.0515L12.0988 14.1077C12.5838 14.1077 12.7186 14.4169 12.6647 14.7822L12.3683 16.5246C12.3144 16.7775 12.1797 16.8899 11.8832 16.8899L6.08983 16.918C5.76647 16.918 5.6048 17.1429 5.63174 17.5082ZM10.5898 6.77283L10.6437 4.29977C10.6437 3.96253 10.7785 3.82201 11.1288 3.82201H11.7755C12.018 3.82201 12.1258 3.73771 12.1258 3.51288L12.0988 0.56206C12.0988 0.168618 12.2066 0.0281027 12.5569 0.0281027L14.8204 0C15.2246 0 15.3862 0.168618 15.3862 0.56206V10.2295C15.3862 10.6511 15.2246 10.8197 14.7934 10.8197L12.5569 10.8478C12.0988 10.8478 11.9102 10.6792 11.9102 10.2014L11.8832 7.86885C11.8832 7.53162 11.7755 7.3911 11.5329 7.3911H11.0749C10.7246 7.3911 10.5898 7.22248 10.5898 6.77283ZM11.3713 6.09836C11.3713 6.40749 11.4791 6.54801 11.8024 6.54801H12.2335C12.5569 6.54801 12.6647 6.71663 12.6647 7.13817L12.6916 9.58314C12.6916 9.89227 12.7994 10.0047 13.0958 10.0047H14.2006C14.497 10.0047 14.6048 9.89227 14.6048 9.58314V1.20843C14.6048 0.955503 14.524 0.84309 14.3084 0.84309H13.2306C12.988 0.84309 12.8803 0.955503 12.8803 1.20843V4.21546C12.8803 4.55269 12.7455 4.69321 12.3952 4.69321L11.7755 4.66511C11.506 4.66511 11.3982 4.74941 11.3982 5.00234L11.3713 6.09836Z" fill="#F7662D"/>
<path fill-rule="evenodd" clip-rule="evenodd" d="M0.781438 5.14286C0.781438 7.47541 2.61377 8.93677 5.49701 8.93677C8.003 8.93677 9.53893 7.47541 9.53893 5.14286C9.53893 2.47307 7.86827 0.814988 5.2006 0.814988C2.47904 0.786885 0.781438 2.44497 0.781438 5.14286ZM4.98503 2.47307C3.58384 2.47307 2.69461 3.42857 2.69461 4.97424C2.69461 6.26698 3.63773 7.13817 5.09282 7.25059C6.62875 7.3911 7.62576 6.4637 7.62576 4.88993C7.62576 3.40047 6.6018 2.47307 4.98503 2.47307Z" fill="#F7662D"/>
<path d="M11.3713 6.09836C11.3713 6.40749 11.4791 6.54801 11.8024 6.54801H12.2335C12.5569 6.54801 12.6647 6.71663 12.6647 7.13817L12.6916 9.58314C12.6916 9.89227 12.7994 10.0047 13.0958 10.0047H14.2006C14.497 10.0047 14.6048 9.89227 14.6048 9.58314V1.20843C14.6048 0.955503 14.524 0.84309 14.3084 0.84309H13.2306C12.988 0.84309 12.8803 0.955503 12.8803 1.20843V4.21546C12.8803 4.55269 12.7455 4.69321 12.3952 4.69321L11.7755 4.66511C11.506 4.66511 11.3982 4.74941 11.3982 5.00234L11.3713 6.09836Z" fill="#F7662D"/>
<path d="M5.63174 17.5082L5.92815 22.4262C5.9551 22.7073 6.14372 22.904 6.46707 22.904L83.1042 23.1288C83.4276 23.1288 83.5623 22.9602 83.5623 22.6229V21.7237C83.5623 21.5269 83.4545 21.3864 83.2659 21.3864L7.49102 21.3583C7.05989 21.3583 6.92516 21.2178 6.92516 20.7963L6.97905 18.829C6.97905 18.4356 7.14073 18.267 7.54492 18.267L13.5539 18.4075C13.985 18.4075 14.0928 18.2389 14.0928 17.7049L13.985 13.0398C13.985 12.7026 13.8773 12.534 13.5539 12.534L6.6018 12.5059C6.44013 12.5059 6.35929 12.5902 6.35929 12.7307V13.7986C6.35929 13.9672 6.49402 14.0515 6.68264 14.0515L12.0988 14.1077C12.5838 14.1077 12.7186 14.4169 12.6647 14.7822L12.3683 16.5246C12.3144 16.7775 12.1797 16.8899 11.8832 16.8899L6.08983 16.918C5.76647 16.918 5.6048 17.1429 5.63174 17.5082Z" fill="#F7662D"/>
</g>
<path id="Ellipse 12" d="M91 16.826C91 20.7881 87.8485 23.9999 83.9609 23.9999C80.0733 23.9999 76.9218 20.7881 76.9218 16.826C76.9218 12.864 80.0733 9.6521 83.9609 9.6521C87.8485 9.6521 91 12.864 91 16.826Z" fill="#F7662D"/>
</g>
</svg>
