<svg width="33" height="47" viewBox="0 0 33 47" fill="none" xmlns="http://www.w3.org/2000/svg">
<g id="Group 34">
<path id="Rectangle 86" d="M16.5496 17.3391C13.9837 12.8948 15.5064 7.2119 19.9507 4.64597L27.9979 -5.05447e-05C30.5638 4.44427 29.0411 10.1272 24.5967 12.6931L16.5496 17.3391Z" fill="#51B667"/>
<g id="Ellipse 12">
<path fill-rule="evenodd" clip-rule="evenodd" d="M32.7062 26.8245C33.532 35.1669 15.985 49.6434 6.68167 43.2025C2.62758 40.1962 0 35.3751 0 29.9403C0 20.8276 7.3873 13.4403 16.5 13.4403C24.0743 13.4403 30.4567 18.544 32.3957 25.5C32.5168 25.9345 32.6206 26.3763 32.7062 26.8245Z" fill="#F7662D"/>
<path d="M16.5 46.4403C25.6127 46.4403 33 39.053 33 29.9403C33 28.8751 32.8991 27.8335 32.7062 26.8245C33.532 35.1669 15.985 49.6434 6.68167 43.2025C9.42522 45.2369 12.8221 46.4403 16.5 46.4403Z" fill="#D74D17"/>
</g>
</g>
</svg>
