<svg width="72" height="16" viewBox="0 0 72 16" fill="none" xmlns="http://www.w3.org/2000/svg">
<g id="Group 46">
<rect id="Rectangle 91" width="72" height="16" rx="8" fill="white"/>
<g id="Group 45">
<path id="Star 1" d="M14.1538 2.46155L15.3973 6.28853H19.4212L16.1658 8.65374L17.4092 12.4807L14.1538 10.1155L10.8984 12.4807L12.1419 8.65374L8.88643 6.28853H12.9104L14.1538 2.46155Z" fill="#F7662D"/>
<path id="Star 2" d="M25.2308 2.46155L26.4743 6.28853H30.4982L27.2428 8.65374L28.4863 12.4807L25.2308 10.1155L21.9754 12.4807L23.2189 8.65374L19.9635 6.28853H23.9874L25.2308 2.46155Z" fill="#F7662D"/>
<path id="Star 3" d="M36.3076 2.46155L37.5511 6.28853H41.575L38.3196 8.65374L39.5631 12.4807L36.3076 10.1155L33.0522 12.4807L34.2957 8.65374L31.0402 6.28853H35.0642L36.3076 2.46155Z" fill="#F7662D"/>
<path id="Star 4" d="M47.3847 2.46155L48.6281 6.28853H52.652L49.3966 8.65374L50.6401 12.4807L47.3847 10.1155L44.1292 12.4807L45.3727 8.65374L42.1173 6.28853H46.1412L47.3847 2.46155Z" fill="#F7662D"/>
<path id="Star 5" fill-rule="evenodd" clip-rule="evenodd" d="M58.1904 2.46155L56.9469 6.28853H52.923L56.1784 8.65374L54.9349 12.4807L58.1904 10.1155V2.46155Z" fill="#F7662D"/>
</g>
</g>
</svg>
